<svg xmlns="http://www.w3.org/2000/svg" viewBox="0 0 142.42 143.62"><defs><style>.cls-1{fill:#5955ff;}</style></defs><g id="Layer_2" data-name="Layer 2"><g id="Layer_3" data-name="Layer 3"><path class="cls-1" d="M135.65,98.31,89.93,143.62,59,143.47l61.24-60.7a.95.95,0,0,0-.66-1.62L0,80.56a0,0,0,0,1,0-.06L81.22,0l30.89.15L52.85,58.89a0,0,0,0,0,0,.06l66.38.33a23.22,23.22,0,0,1,21.44,14.13A22.77,22.77,0,0,1,135.65,98.31Z"/><path class="cls-1" d="M73.85,121.42,58.55,106a0,0,0,0,1,0-.07L103.85,61a0,0,0,0,1,.07,0l15.3,15.47a.09.09,0,0,1,0,.07l-45.3,44.9A0,0,0,0,1,73.85,121.42Z"/><path class="cls-1" d="M74.07,76.23,58.77,60.76a0,0,0,0,1,0-.07l42.74-42.36a0,0,0,0,1,.07,0l15.3,15.47a0,0,0,0,1,0,.07L74.14,76.23A0,0,0,0,1,74.07,76.23Z"/></g></g></svg>